# xmcd
#
# Track frame offsets:
#	150
#	25656
#	51054
#	73130
#	95276
#	120644
#	145883
#	168563
#	196596
#	223048
#	251235
#	278827
#	305768
#
# Disc length: 4423 seconds
# Revision: 0
# Processed by: cddbd v1.5.2PL0 Copyright (c) Steve Scherf et al.
# Submitted via: dBpowerAMP V12.0
#
DISCID=bf11450d
DTITLE=Franz Kafka - Der Prozess 3
DYEAR=2008
DGENRE=Unbekanntes Genre
TTITLE0=11  - Im leeren Sitzungssaal - Der Student -Die Kanzleien
TTITLE1=11  - Im leeren Sitzungssaal - Der Student -Die Kanzleien
TTITLE2=Der Prügler
TTITLE3=Der Prügler
TTITLE4=Der Prügler
TTITLE5=Der Onkel - Leni
TTITLE6=Der Onkel - Leni
TTITLE7=Der Onkel - Leni
TTITLE8=Der Onkel - Leni
TTITLE9=Der Onkel - Leni
TTITLE10=Der Onkel - Leni
TTITLE11=Der Onkel - Leni
TTITLE12=Der Onkel - Leni
EXTD=
EXTT0=
EXTT1=
EXTT2=
EXTT3=
EXTT4=
EXTT5=
EXTT6=
EXTT7=
EXTT8=
EXTT9=
EXTT10=
EXTT11=
EXTT12=
PLAYORDER=
